<svg xmlns="http://www.w3.org/2000/svg" viewBox="0 0 203.95 67.02"><defs><style>.cls-1{fill:#d1d3d4;stroke-width:2px;}.cls-1,.cls-7{stroke:#1b75bc;stroke-miterlimit:10;}.cls-2{font-size:16px;font-family:CMUSerif-Roman, CMU Serif;}.cls-2,.cls-9{fill:#231f20;}.cls-3,.cls-4,.cls-5,.cls-6{font-family:TimesNewRomanPS-ItalicMT, Times New Roman;}.cls-3,.cls-4,.cls-5,.cls-6,.cls-9{font-style:italic;}.cls-4{letter-spacing:-0.06em;}.cls-5{letter-spacing:-0.04em;}.cls-6{letter-spacing:-0.04em;}.cls-7{fill:none;stroke-width:1.5px;}.cls-8{fill:#1b75bc;}.cls-9{font-size:24px;font-family:CMUSerif-Italic, CMU Serif;}</style></defs><title>pipeline_website</title><g id="Layer_1" data-name="Layer 1"><rect class="cls-1" x="88.25" y="5.36" width="7.75" height="28.95"/><rect class="cls-1" x="98.93" y="5.36" width="7.75" height="28.95"/><rect class="cls-1" x="109.61" y="5.36" width="7.75" height="28.95"/><text class="cls-2" transform="translate(4.97 23.28)">(<tspan class="cls-3" x="6.21" y="0">x,</tspan><tspan class="cls-4" x="17.31" y="0">y</tspan><tspan class="cls-3" x="23.53" y="0">,z,</tspan><tspan class="cls-5" x="37.75" y="0">θ</tspan><tspan class="cls-3" x="44.97" y="0">,</tspan><tspan class="cls-6" x="48.97" y="0">ϕ</tspan><tspan x="56.62" y="0">)</tspan></text><line class="cls-7" x1="69.68" y1="19.59" x2="80.41" y2="19.59"/><path class="cls-8" d="M84.94,19.59a22.51,22.51,0,0,0-6.41,3.57l1.29-3.57L78.53,16A22.51,22.51,0,0,0,84.94,19.59Z"/><text class="cls-9" transform="translate(89.77 55.25)">F</text><text class="cls-9" transform="translate(105.41 63.24) scale(0.58)">Θ</text><line class="cls-7" x1="120.5" y1="20.19" x2="131.23" y2="20.19"/><path class="cls-8" d="M135.75,20.19a22.65,22.65,0,0,0-6.41,3.57l1.29-3.57-1.29-3.56A22.87,22.87,0,0,0,135.75,20.19Z"/><text class="cls-2" transform="translate(137.23 25.22)">(<tspan class="cls-3" x="6.21" y="0">RGBσ</tspan><tspan x="45.2" y="0">)</tspan></text></g></svg>