<svg xmlns="http://www.w3.org/2000/svg" xmlns:xlink="http://www.w3.org/1999/xlink" viewBox="0 0 238.52 139.37"><defs><style>.cls-1,.cls-6{font-size:12px;}.cls-1,.cls-13,.cls-14,.cls-15,.cls-4,.cls-6{fill:#231f20;}.cls-1,.cls-13,.cls-15{font-family:CMUSerif-Roman, CMU Serif;}.cls-2{letter-spacing:-0.03em;}.cls-12,.cls-3,.cls-5,.cls-7,.cls-8{fill:none;stroke-miterlimit:10;}.cls-12,.cls-3{stroke:#231f20;}.cls-5,.cls-7{stroke-width:2px;}.cls-5{stroke:url(#linear-gradient);}.cls-6{font-family:TimesNewRomanPS-ItalicMT, Times New Roman;}.cls-14,.cls-6{font-style:italic;}.cls-7{stroke:url(#linear-gradient-2);}.cls-8{stroke:#1b75bc;}.cls-12,.cls-8{stroke-width:1.5px;}.cls-9{fill:#1b75bc;}.cls-10{fill:#b36a39;}.cls-11{fill:#f68b42;}.cls-13{font-size:16px;}.cls-14,.cls-15{font-size:10px;}.cls-14{font-family:Times-Italic, Times;}.cls-16{letter-spacing:-0.03em;}</style><linearGradient id="linear-gradient" x1="12.84" y1="40.8" x2="112.27" y2="40.8" gradientUnits="userSpaceOnUse"><stop offset="0" stop-color="#fff33b"/><stop offset="0.1" stop-color="#fee350"/><stop offset="0.22" stop-color="#fdd563"/><stop offset="0.34" stop-color="#fccc6e"/><stop offset="0.47" stop-color="#fcc972"/><stop offset="0.53" stop-color="#fac570"/><stop offset="0.58" stop-color="#f3ba6a"/><stop offset="0.64" stop-color="#e8a761"/><stop offset="0.69" stop-color="#d88c53"/><stop offset="0.74" stop-color="#c46942"/><stop offset="0.75" stop-color="#c0633f"/><stop offset="0.89" stop-color="#ffe200"/><stop offset="1" stop-color="#e4e417"/></linearGradient><linearGradient id="linear-gradient-2" x1="12.98" y1="109.14" x2="112.27" y2="109.14" gradientUnits="userSpaceOnUse"><stop offset="0" stop-color="#fff33b"/><stop offset="0.02" stop-color="#fcdf3d"/><stop offset="0.07" stop-color="#f7bd3f"/><stop offset="0.12" stop-color="#f2a241"/><stop offset="0.17" stop-color="#ef8f43"/><stop offset="0.23" stop-color="#ee8444"/><stop offset="0.28" stop-color="#ed8044"/><stop offset="0.67" stop-color="#e6d856"/><stop offset="0.89" stop-color="#f1ea2e"/><stop offset="1" stop-color="#e8c537"/></linearGradient></defs><title>pipeline_website</title><g id="Layer_1" data-name="Layer 1"><text class="cls-1" transform="translate(48.64 28.49)">R<tspan class="cls-2" x="8.83" y="0">a</tspan><tspan x="14.5" y="0">y 1</tspan></text><line class="cls-3" x1="12.83" y1="58.1" x2="112.25" y2="58.1"/><path class="cls-4" d="M115.27,58.1A15.39,15.39,0,0,0,111,60.48l.86-2.38L111,55.72A14.9,14.9,0,0,0,115.27,58.1Z"/><path class="cls-5" d="M13.1,54.61a91.33,91.33,0,0,1,25.34-3.29c17.93.24,22.69,4.16,31.6,3.29,16-1.57,12.25-27,23.7-27.74,7.54-.47,13.72,18.39,18.53,18.39"/><line class="cls-3" x1="12.83" y1="58.46" x2="12.83" y2="23.22"/><path class="cls-4" d="M12.83,20.21a15.2,15.2,0,0,0,2.38,4.27l-2.38-.86-2.38.86A15,15,0,0,0,12.83,20.21Z"/><text class="cls-6" transform="translate(4.81 22.55)">σ</text><line class="cls-3" x1="12.83" y1="125.1" x2="112.25" y2="125.1"/><path class="cls-4" d="M115.27,125.1a15.39,15.39,0,0,0-4.28,2.38l.86-2.38-.86-2.38A14.9,14.9,0,0,0,115.27,125.1Z"/><path class="cls-7" d="M13.1,121.61c6.27.79,5.1.92,15.71.92,8.22,0,10.44-23.15,16.17-24,5.45-.81,5.45,22.26,20.7,22.26,17.08,0,17.48-23.85,23.69-25,9-1.6,9.55,23,22.9,23"/><line class="cls-3" x1="12.83" y1="125.46" x2="12.83" y2="90.22"/><path class="cls-4" d="M12.83,87.21a15.2,15.2,0,0,0,2.38,4.27l-2.38-.86-2.38.86A15,15,0,0,0,12.83,87.21Z"/><text class="cls-6" transform="translate(4.81 89.55)">σ</text><path class="cls-8" d="M109,18C120,1.54,153.57-4.4,168.05,22.18"/><path class="cls-9" d="M170,26.27a22.49,22.49,0,0,0-6-4.18l3.77-.42,2.63-2.73A22.67,22.67,0,0,0,170,26.27Z"/><rect class="cls-10" x="161.96" y="28.27" width="16.68" height="16.68"/><rect class="cls-11" x="161.96" y="94.26" width="16.68" height="16.68"/><path class="cls-8" d="M108,96.13c10.92-21.7,44.84-28.89,59.55-7.95"/><path class="cls-9" d="M169.89,92.07a22.61,22.61,0,0,0-6.39-3.61l3.72-.76,2.36-3A22.7,22.7,0,0,0,169.89,92.07Z"/><line class="cls-12" x1="150.01" y1="21.27" x2="150.01" y2="52.39"/><line class="cls-12" x1="153.14" y1="21.13" x2="153.14" y2="52.25"/><line class="cls-12" x1="150.01" y1="87.1" x2="150.01" y2="118.23"/><line class="cls-12" x1="153.14" y1="86.97" x2="153.14" y2="118.09"/><line class="cls-12" x1="220.83" y1="87.1" x2="220.83" y2="118.23"/><line class="cls-12" x1="223.97" y1="86.97" x2="223.97" y2="118.09"/><line class="cls-12" x1="220.83" y1="21.33" x2="220.83" y2="52.46"/><line class="cls-12" x1="223.97" y1="21.2" x2="223.97" y2="52.32"/><text class="cls-13" transform="translate(192.82 40.73)">g.t.</text><line class="cls-12" x1="182.62" y1="37.15" x2="189.44" y2="37.15"/><text class="cls-13" transform="translate(192.8 106.28)">g.t.</text><line class="cls-12" x1="182.62" y1="102.67" x2="189.44" y2="102.67"/><text class="cls-14" transform="translate(227.39 23.44)">2</text><text class="cls-14" transform="translate(227.39 54.88)">2</text><text class="cls-14" transform="translate(227.39 90.05)">2</text><text class="cls-14" transform="translate(227.39 121.49)">2</text><text class="cls-1" transform="translate(48.64 95.03)">R<tspan class="cls-2" x="8.83" y="0">a</tspan><tspan x="14.5" y="0">y 2</tspan></text><text class="cls-15" transform="translate(34.88 134.19)">R<tspan class="cls-16" x="7.36" y="0">a</tspan><tspan x="12.08" y="0">y Distance</tspan></text></g></svg>